# xmcd
# 
# Track frame offsets:
#     150
#     17817
#     31955
#     50780
#     67205
#     82035
#     98622
#     116192
#     128667
#     145417
#     166930
# 
# Disc length: 2451
# 
# Revision: 4
# Processed by: cddbd v1.5.2PL0 Copyright (c) Steve Scherf et al.
# Submitted via: fre:ac v1.0.31
# 
DISCID=9c09910b
DTITLE=Buster Poindexter - Buster Poindexter
DYEAR=1987
DGENRE=Rock/Pop
TTITLE0=Smack Dab In The Middle
TTITLE1=Bad Boy
TTITLE2=Hot Hot Hot
TTITLE3=Are You Lonely For Me Baby
TTITLE4=Screwy Music
TTITLE5=Good Morning Judge
TTITLE6=Oh Me Oh My (I'm A Fool For You Baby)
TTITLE7=Whadaya Want?
TTITLE8=House Of The Rising Sun
TTITLE9=Cannibal
TTITLE10=Heart Of Gold
EXTD=A.k.a. David Johanssen
EXTT0=
EXTT1=
EXTT2=
EXTT3=
EXTT4=
EXTT5=
EXTT6=
EXTT7=
EXTT8=
EXTT9=
EXTT10=
PLAYORDER=
